<mxfile host="Electron" agent="Mozilla/5.0 (Windows NT 10.0; Win64; x64) AppleWebKit/537.36 (KHTML, like Gecko) draw.io/24.7.17 Chrome/128.0.6613.36 Electron/32.0.1 Safari/537.36" version="24.7.17">
  <diagram id="C5RBs43oDa-KdzZeNtuy" name="Page-1">
    <mxGraphModel dx="1194" dy="748" grid="0" gridSize="10" guides="1" tooltips="1" connect="1" arrows="1" fold="1" page="1" pageScale="1" pageWidth="3300" pageHeight="4681" math="0" shadow="0">
      <root>
        <mxCell id="WIyWlLk6GJQsqaUBKTNV-0" />
        <mxCell id="WIyWlLk6GJQsqaUBKTNV-1" parent="WIyWlLk6GJQsqaUBKTNV-0" />
        <mxCell id="3MLsI5O5fIbENEvjLkuj-0" value="Класс опасности" style="swimlane;fontStyle=0;childLayout=stackLayout;horizontal=1;startSize=26;fillColor=none;horizontalStack=0;resizeParent=1;resizeParentMax=0;resizeLast=0;collapsible=1;marginBottom=0;whiteSpace=wrap;html=1;" parent="WIyWlLk6GJQsqaUBKTNV-1" vertex="1">
          <mxGeometry x="840" y="312" width="140" height="78" as="geometry" />
        </mxCell>
        <mxCell id="3MLsI5O5fIbENEvjLkuj-1" value="# ID класса: NOT NULL" style="text;strokeColor=none;fillColor=none;align=left;verticalAlign=top;spacingLeft=4;spacingRight=4;overflow=hidden;rotatable=0;points=[[0,0.5],[1,0.5]];portConstraint=eastwest;whiteSpace=wrap;html=1;" parent="3MLsI5O5fIbENEvjLkuj-0" vertex="1">
          <mxGeometry y="26" width="140" height="26" as="geometry" />
        </mxCell>
        <mxCell id="3MLsI5O5fIbENEvjLkuj-2" value="Название" style="text;strokeColor=none;fillColor=none;align=left;verticalAlign=top;spacingLeft=4;spacingRight=4;overflow=hidden;rotatable=0;points=[[0,0.5],[1,0.5]];portConstraint=eastwest;whiteSpace=wrap;html=1;" parent="3MLsI5O5fIbENEvjLkuj-0" vertex="1">
          <mxGeometry y="52" width="140" height="26" as="geometry" />
        </mxCell>
        <mxCell id="3MLsI5O5fIbENEvjLkuj-5" value="Предприятие" style="swimlane;fontStyle=0;childLayout=stackLayout;horizontal=1;startSize=26;fillColor=none;horizontalStack=0;resizeParent=1;resizeParentMax=0;resizeLast=0;collapsible=1;marginBottom=0;whiteSpace=wrap;html=1;" parent="WIyWlLk6GJQsqaUBKTNV-1" vertex="1">
          <mxGeometry x="350" y="350" width="211" height="78" as="geometry" />
        </mxCell>
        <mxCell id="3MLsI5O5fIbENEvjLkuj-19" value="# ID предприятия: NOT NULL" style="text;strokeColor=none;fillColor=none;align=left;verticalAlign=top;spacingLeft=4;spacingRight=4;overflow=hidden;rotatable=0;points=[[0,0.5],[1,0.5]];portConstraint=eastwest;whiteSpace=wrap;html=1;" parent="3MLsI5O5fIbENEvjLkuj-5" vertex="1">
          <mxGeometry y="26" width="211" height="26" as="geometry" />
        </mxCell>
        <mxCell id="3MLsI5O5fIbENEvjLkuj-7" value="Название" style="text;strokeColor=none;fillColor=none;align=left;verticalAlign=top;spacingLeft=4;spacingRight=4;overflow=hidden;rotatable=0;points=[[0,0.5],[1,0.5]];portConstraint=eastwest;whiteSpace=wrap;html=1;" parent="3MLsI5O5fIbENEvjLkuj-5" vertex="1">
          <mxGeometry y="52" width="211" height="26" as="geometry" />
        </mxCell>
        <mxCell id="3MLsI5O5fIbENEvjLkuj-8" value="Договор" style="swimlane;fontStyle=0;childLayout=stackLayout;horizontal=1;startSize=26;fillColor=none;horizontalStack=0;resizeParent=1;resizeParentMax=0;resizeLast=0;collapsible=1;marginBottom=0;whiteSpace=wrap;html=1;" parent="WIyWlLk6GJQsqaUBKTNV-1" vertex="1">
          <mxGeometry x="300" y="520" width="190" height="130" as="geometry" />
        </mxCell>
        <mxCell id="3MLsI5O5fIbENEvjLkuj-17" value="# ID договора: NOT NULL" style="text;strokeColor=none;fillColor=none;align=left;verticalAlign=top;spacingLeft=4;spacingRight=4;overflow=hidden;rotatable=0;points=[[0,0.5],[1,0.5]];portConstraint=eastwest;whiteSpace=wrap;html=1;" parent="3MLsI5O5fIbENEvjLkuj-8" vertex="1">
          <mxGeometry y="26" width="190" height="26" as="geometry" />
        </mxCell>
        <mxCell id="3MLsI5O5fIbENEvjLkuj-18" value="# ID предприятия: NOT NULL" style="text;strokeColor=none;fillColor=none;align=left;verticalAlign=top;spacingLeft=4;spacingRight=4;overflow=hidden;rotatable=0;points=[[0,0.5],[1,0.5]];portConstraint=eastwest;whiteSpace=wrap;html=1;" parent="3MLsI5O5fIbENEvjLkuj-8" vertex="1">
          <mxGeometry y="52" width="190" height="26" as="geometry" />
        </mxCell>
        <mxCell id="3MLsI5O5fIbENEvjLkuj-9" value="Годовой лимит" style="text;strokeColor=none;fillColor=none;align=left;verticalAlign=top;spacingLeft=4;spacingRight=4;overflow=hidden;rotatable=0;points=[[0,0.5],[1,0.5]];portConstraint=eastwest;whiteSpace=wrap;html=1;" parent="3MLsI5O5fIbENEvjLkuj-8" vertex="1">
          <mxGeometry y="78" width="190" height="26" as="geometry" />
        </mxCell>
        <mxCell id="3MLsI5O5fIbENEvjLkuj-10" value="Тариф" style="text;strokeColor=none;fillColor=none;align=left;verticalAlign=top;spacingLeft=4;spacingRight=4;overflow=hidden;rotatable=0;points=[[0,0.5],[1,0.5]];portConstraint=eastwest;whiteSpace=wrap;html=1;" parent="3MLsI5O5fIbENEvjLkuj-8" vertex="1">
          <mxGeometry y="104" width="190" height="26" as="geometry" />
        </mxCell>
        <mxCell id="3MLsI5O5fIbENEvjLkuj-11" value="Участок&lt;span style=&quot;color: rgba(0, 0, 0, 0); font-family: monospace; font-size: 0px; text-align: start; text-wrap: nowrap;&quot;&gt;%3CmxGraphModel%3E%3Croot%3E%3CmxCell%20id%3D%220%22%2F%3E%3CmxCell%20id%3D%221%22%20parent%3D%220%22%2F%3E%3CmxCell%20id%3D%222%22%20value%3D%22%D0%94%D0%BE%D0%B3%D0%BE%D0%B2%D0%BE%D1%80%22%20style%3D%22swimlane%3BfontStyle%3D0%3BchildLayout%3DstackLayout%3Bhorizontal%3D1%3BstartSize%3D26%3BfillColor%3Dnone%3BhorizontalStack%3D0%3BresizeParent%3D1%3BresizeParentMax%3D0%3BresizeLast%3D0%3Bcollapsible%3D1%3BmarginBottom%3D0%3BwhiteSpace%3Dwrap%3Bhtml%3D1%3B%22%20vertex%3D%221%22%20parent%3D%221%22%3E%3CmxGeometry%20x%3D%22274%22%20y%3D%22330%22%20width%3D%22140%22%20height%3D%2278%22%20as%3D%22geometry%22%2F%3E%3C%2FmxCell%3E%3CmxCell%20id%3D%223%22%20value%3D%22%D0%9D%D0%BE%D0%BC%D0%B5%D1%80%22%20style%3D%22text%3BstrokeColor%3Dnone%3BfillColor%3Dnone%3Balign%3Dleft%3BverticalAlign%3Dtop%3BspacingLeft%3D4%3BspacingRight%3D4%3Boverflow%3Dhidden%3Brotatable%3D0%3Bpoints%3D%5B%5B0%2C0.5%5D%2C%5B1%2C0.5%5D%5D%3BportConstraint%3Deastwest%3BwhiteSpace%3Dwrap%3Bhtml%3D1%3B%22%20vertex%3D%221%22%20parent%3D%222%22%3E%3CmxGeometry%20y%3D%2226%22%20width%3D%22140%22%20height%3D%2226%22%20as%3D%22geometry%22%2F%3E%3C%2FmxCell%3E%3CmxCell%20id%3D%224%22%20value%3D%22%D0%9D%D0%B0%D0%B7%D0%B2%D0%B0%D0%BD%D0%B8%D0%B5%22%20style%3D%22text%3BstrokeColor%3Dnone%3BfillColor%3Dnone%3Balign%3Dleft%3BverticalAlign%3Dtop%3BspacingLeft%3D4%3BspacingRight%3D4%3Boverflow%3Dhidden%3Brotatable%3D0%3Bpoints%3D%5B%5B0%2C0.5%5D%2C%5B1%2C0.5%5D%5D%3BportConstraint%3Deastwest%3BwhiteSpace%3Dwrap%3Bhtml%3D1%3B%22%20vertex%3D%221%22%20parent%3D%222%22%3E%3CmxGeometry%20y%3D%2252%22%20width%3D%22140%22%20height%3D%2226%22%20as%3D%22geometry%22%2F%3E%3C%2FmxCell%3E%3C%2Froot%3E%3C%2FmxGraphModel%3E&lt;/span&gt;&lt;span style=&quot;color: rgba(0, 0, 0, 0); font-family: monospace; font-size: 0px; text-align: start; text-wrap: nowrap;&quot;&gt;%3CmxGraphModel%3E%3Croot%3E%3CmxCell%20id%3D%220%22%2F%3E%3CmxCell%20id%3D%221%22%20parent%3D%220%22%2F%3E%3CmxCell%20id%3D%222%22%20value%3D%22%D0%94%D0%BE%D0%B3%D0%BE%D0%B2%D0%BE%D1%80%22%20style%3D%22swimlane%3BfontStyle%3D0%3BchildLayout%3DstackLayout%3Bhorizontal%3D1%3BstartSize%3D26%3BfillColor%3Dnone%3BhorizontalStack%3D0%3BresizeParent%3D1%3BresizeParentMax%3D0%3BresizeLast%3D0%3Bcollapsible%3D1%3BmarginBottom%3D0%3BwhiteSpace%3Dwrap%3Bhtml%3D1%3B%22%20vertex%3D%221%22%20parent%3D%221%22%3E%3CmxGeometry%20x%3D%22274%22%20y%3D%22330%22%20width%3D%22140%22%20height%3D%2278%22%20as%3D%22geometry%22%2F%3E%3C%2FmxCell%3E%3CmxCell%20id%3D%223%22%20value%3D%22%D0%9D%D0%BE%D0%BC%D0%B5%D1%80%22%20style%3D%22text%3BstrokeColor%3Dnone%3BfillColor%3Dnone%3Balign%3Dleft%3BverticalAlign%3Dtop%3BspacingLeft%3D4%3BspacingRight%3D4%3Boverflow%3Dhidden%3Brotatable%3D0%3Bpoints%3D%5B%5B0%2C0.5%5D%2C%5B1%2C0.5%5D%5D%3BportConstraint%3Deastwest%3BwhiteSpace%3Dwrap%3Bhtml%3D1%3B%22%20vertex%3D%221%22%20parent%3D%222%22%3E%3CmxGeometry%20y%3D%2226%22%20width%3D%22140%22%20height%3D%2226%22%20as%3D%22geometry%22%2F%3E%3C%2FmxCell%3E%3CmxCell%20id%3D%224%22%20value%3D%22%D0%9D%D0%B0%D0%B7%D0%B2%D0%B0%D0%BD%D0%B8%D0%B5%22%20style%3D%22text%3BstrokeColor%3Dnone%3BfillColor%3Dnone%3Balign%3Dleft%3BverticalAlign%3Dtop%3BspacingLeft%3D4%3BspacingRight%3D4%3Boverflow%3Dhidden%3Brotatable%3D0%3Bpoints%3D%5B%5B0%2C0.5%5D%2C%5B1%2C0.5%5D%5D%3BportConstraint%3Deastwest%3BwhiteSpace%3Dwrap%3Bhtml%3D1%3B%22%20vertex%3D%221%22%20parent%3D%222%22%3E%3CmxGeometry%20y%3D%2252%22%20width%3D%22140%22%20height%3D%2226%22%20as%3D%22geometry%22%2F%3E%3C%2FmxCell%3E%3C%2Froot%3E%3C%2FmxGraphModel%3E&lt;/span&gt;" style="swimlane;fontStyle=0;childLayout=stackLayout;horizontal=1;startSize=26;fillColor=none;horizontalStack=0;resizeParent=1;resizeParentMax=0;resizeLast=0;collapsible=1;marginBottom=0;whiteSpace=wrap;html=1;" parent="WIyWlLk6GJQsqaUBKTNV-1" vertex="1">
          <mxGeometry x="1163" y="532" width="245" height="104" as="geometry" />
        </mxCell>
        <mxCell id="3MLsI5O5fIbENEvjLkuj-12" value="# ID участка: NOT NULL" style="text;strokeColor=none;fillColor=none;align=left;verticalAlign=top;spacingLeft=4;spacingRight=4;overflow=hidden;rotatable=0;points=[[0,0.5],[1,0.5]];portConstraint=eastwest;whiteSpace=wrap;html=1;" parent="3MLsI5O5fIbENEvjLkuj-11" vertex="1">
          <mxGeometry y="26" width="245" height="26" as="geometry" />
        </mxCell>
        <mxCell id="3MLsI5O5fIbENEvjLkuj-13" value="Название" style="text;strokeColor=none;fillColor=none;align=left;verticalAlign=top;spacingLeft=4;spacingRight=4;overflow=hidden;rotatable=0;points=[[0,0.5],[1,0.5]];portConstraint=eastwest;whiteSpace=wrap;html=1;" parent="3MLsI5O5fIbENEvjLkuj-11" vertex="1">
          <mxGeometry y="52" width="245" height="26" as="geometry" />
        </mxCell>
        <mxCell id="3MLsI5O5fIbENEvjLkuj-49" value="# ID класса опасности: NOT NULL" style="text;strokeColor=none;fillColor=none;align=left;verticalAlign=top;spacingLeft=4;spacingRight=4;overflow=hidden;rotatable=0;points=[[0,0.5],[1,0.5]];portConstraint=eastwest;whiteSpace=wrap;html=1;" parent="3MLsI5O5fIbENEvjLkuj-11" vertex="1">
          <mxGeometry y="78" width="245" height="26" as="geometry" />
        </mxCell>
        <mxCell id="3MLsI5O5fIbENEvjLkuj-14" value="Транспорт" style="swimlane;fontStyle=0;childLayout=stackLayout;horizontal=1;startSize=26;fillColor=none;horizontalStack=0;resizeParent=1;resizeParentMax=0;resizeLast=0;collapsible=1;marginBottom=0;whiteSpace=wrap;html=1;" parent="WIyWlLk6GJQsqaUBKTNV-1" vertex="1">
          <mxGeometry x="561" y="730" width="201" height="156" as="geometry" />
        </mxCell>
        <mxCell id="3MLsI5O5fIbENEvjLkuj-16" value="# ID транспорта: NOT NULL" style="text;strokeColor=none;fillColor=none;align=left;verticalAlign=top;spacingLeft=4;spacingRight=4;overflow=hidden;rotatable=0;points=[[0,0.5],[1,0.5]];portConstraint=eastwest;whiteSpace=wrap;html=1;" parent="3MLsI5O5fIbENEvjLkuj-14" vertex="1">
          <mxGeometry y="26" width="201" height="26" as="geometry" />
        </mxCell>
        <mxCell id="3MLsI5O5fIbENEvjLkuj-20" value="гос. номер" style="text;strokeColor=none;fillColor=none;align=left;verticalAlign=top;spacingLeft=4;spacingRight=4;overflow=hidden;rotatable=0;points=[[0,0.5],[1,0.5]];portConstraint=eastwest;whiteSpace=wrap;html=1;" parent="3MLsI5O5fIbENEvjLkuj-14" vertex="1">
          <mxGeometry y="52" width="201" height="26" as="geometry" />
        </mxCell>
        <mxCell id="3MLsI5O5fIbENEvjLkuj-21" value="Марка" style="text;strokeColor=none;fillColor=none;align=left;verticalAlign=top;spacingLeft=4;spacingRight=4;overflow=hidden;rotatable=0;points=[[0,0.5],[1,0.5]];portConstraint=eastwest;whiteSpace=wrap;html=1;" parent="3MLsI5O5fIbENEvjLkuj-14" vertex="1">
          <mxGeometry y="78" width="201" height="26" as="geometry" />
        </mxCell>
        <mxCell id="3MLsI5O5fIbENEvjLkuj-22" value="Модель" style="text;strokeColor=none;fillColor=none;align=left;verticalAlign=top;spacingLeft=4;spacingRight=4;overflow=hidden;rotatable=0;points=[[0,0.5],[1,0.5]];portConstraint=eastwest;whiteSpace=wrap;html=1;" parent="3MLsI5O5fIbENEvjLkuj-14" vertex="1">
          <mxGeometry y="104" width="201" height="26" as="geometry" />
        </mxCell>
        <mxCell id="3MLsI5O5fIbENEvjLkuj-15" value="ФИО водителя" style="text;strokeColor=none;fillColor=none;align=left;verticalAlign=top;spacingLeft=4;spacingRight=4;overflow=hidden;rotatable=0;points=[[0,0.5],[1,0.5]];portConstraint=eastwest;whiteSpace=wrap;html=1;" parent="3MLsI5O5fIbENEvjLkuj-14" vertex="1">
          <mxGeometry y="130" width="201" height="26" as="geometry" />
        </mxCell>
        <mxCell id="3MLsI5O5fIbENEvjLkuj-23" value="Поставка" style="swimlane;fontStyle=0;childLayout=stackLayout;horizontal=1;startSize=26;fillColor=none;horizontalStack=0;resizeParent=1;resizeParentMax=0;resizeLast=0;collapsible=1;marginBottom=0;whiteSpace=wrap;html=1;" parent="WIyWlLk6GJQsqaUBKTNV-1" vertex="1">
          <mxGeometry x="579" y="442" width="171" height="234" as="geometry" />
        </mxCell>
        <mxCell id="3MLsI5O5fIbENEvjLkuj-24" value="# ID поставки: NOT NULL" style="text;strokeColor=none;fillColor=none;align=left;verticalAlign=top;spacingLeft=4;spacingRight=4;overflow=hidden;rotatable=0;points=[[0,0.5],[1,0.5]];portConstraint=eastwest;whiteSpace=wrap;html=1;" parent="3MLsI5O5fIbENEvjLkuj-23" vertex="1">
          <mxGeometry y="26" width="171" height="26" as="geometry" />
        </mxCell>
        <mxCell id="3MLsI5O5fIbENEvjLkuj-43" value="Название поставки" style="text;strokeColor=none;fillColor=none;align=left;verticalAlign=top;spacingLeft=4;spacingRight=4;overflow=hidden;rotatable=0;points=[[0,0.5],[1,0.5]];portConstraint=eastwest;whiteSpace=wrap;html=1;" parent="3MLsI5O5fIbENEvjLkuj-23" vertex="1">
          <mxGeometry y="52" width="171" height="26" as="geometry" />
        </mxCell>
        <mxCell id="-GfV_kEzAqFsBZIjdHQp-1" value="# ID сотрудника: NOT NULL" style="text;strokeColor=none;fillColor=none;align=left;verticalAlign=top;spacingLeft=4;spacingRight=4;overflow=hidden;rotatable=0;points=[[0,0.5],[1,0.5]];portConstraint=eastwest;whiteSpace=wrap;html=1;" vertex="1" parent="3MLsI5O5fIbENEvjLkuj-23">
          <mxGeometry y="78" width="171" height="26" as="geometry" />
        </mxCell>
        <mxCell id="3MLsI5O5fIbENEvjLkuj-25" value="# ID договора: NOT NULL" style="text;strokeColor=none;fillColor=none;align=left;verticalAlign=top;spacingLeft=4;spacingRight=4;overflow=hidden;rotatable=0;points=[[0,0.5],[1,0.5]];portConstraint=eastwest;whiteSpace=wrap;html=1;" parent="3MLsI5O5fIbENEvjLkuj-23" vertex="1">
          <mxGeometry y="104" width="171" height="26" as="geometry" />
        </mxCell>
        <mxCell id="3MLsI5O5fIbENEvjLkuj-35" value="# ID транспорта: NOT NULL" style="text;strokeColor=none;fillColor=none;align=left;verticalAlign=top;spacingLeft=4;spacingRight=4;overflow=hidden;rotatable=0;points=[[0,0.5],[1,0.5]];portConstraint=eastwest;whiteSpace=wrap;html=1;" parent="3MLsI5O5fIbENEvjLkuj-23" vertex="1">
          <mxGeometry y="130" width="171" height="26" as="geometry" />
        </mxCell>
        <mxCell id="3MLsI5O5fIbENEvjLkuj-29" value="# ID отхода: NOT NULL" style="text;strokeColor=none;fillColor=none;align=left;verticalAlign=top;spacingLeft=4;spacingRight=4;overflow=hidden;rotatable=0;points=[[0,0.5],[1,0.5]];portConstraint=eastwest;whiteSpace=wrap;html=1;" parent="3MLsI5O5fIbENEvjLkuj-23" vertex="1">
          <mxGeometry y="156" width="171" height="26" as="geometry" />
        </mxCell>
        <mxCell id="3MLsI5O5fIbENEvjLkuj-36" value="Количество" style="text;strokeColor=none;fillColor=none;align=left;verticalAlign=top;spacingLeft=4;spacingRight=4;overflow=hidden;rotatable=0;points=[[0,0.5],[1,0.5]];portConstraint=eastwest;whiteSpace=wrap;html=1;" parent="3MLsI5O5fIbENEvjLkuj-23" vertex="1">
          <mxGeometry y="182" width="171" height="26" as="geometry" />
        </mxCell>
        <mxCell id="3MLsI5O5fIbENEvjLkuj-28" value="Дата&lt;span style=&quot;color: rgba(0, 0, 0, 0); font-family: monospace; font-size: 0px; text-wrap: nowrap;&quot;&gt;%3CmxGraphModel%3E%3Croot%3E%3CmxCell%20id%3D%220%22%2F%3E%3CmxCell%20id%3D%221%22%20parent%3D%220%22%2F%3E%3CmxCell%20id%3D%222%22%20value%3D%22%D0%A2%D0%B0%D1%80%D0%B8%D1%84%22%20style%3D%22text%3BstrokeColor%3Dnone%3BfillColor%3Dnone%3Balign%3Dleft%3BverticalAlign%3Dtop%3BspacingLeft%3D4%3BspacingRight%3D4%3Boverflow%3Dhidden%3Brotatable%3D0%3Bpoints%3D%5B%5B0%2C0.5%5D%2C%5B1%2C0.5%5D%5D%3BportConstraint%3Deastwest%3BwhiteSpace%3Dwrap%3Bhtml%3D1%3B%22%20vertex%3D%221%22%20parent%3D%221%22%3E%3CmxGeometry%20x%3D%22480%22%20y%3D%22404%22%20width%3D%22140%22%20height%3D%2226%22%20as%3D%22geometry%22%2F%3E%3C%2FmxCell%3E%3C%2Froot%3E%3C%2FmxGraphModel%3E&lt;/span&gt;" style="text;strokeColor=none;fillColor=none;align=left;verticalAlign=top;spacingLeft=4;spacingRight=4;overflow=hidden;rotatable=0;points=[[0,0.5],[1,0.5]];portConstraint=eastwest;whiteSpace=wrap;html=1;" parent="3MLsI5O5fIbENEvjLkuj-23" vertex="1">
          <mxGeometry y="208" width="171" height="26" as="geometry" />
        </mxCell>
        <mxCell id="3MLsI5O5fIbENEvjLkuj-30" value="Отход" style="swimlane;fontStyle=0;childLayout=stackLayout;horizontal=1;startSize=26;fillColor=none;horizontalStack=0;resizeParent=1;resizeParentMax=0;resizeLast=0;collapsible=1;marginBottom=0;whiteSpace=wrap;html=1;" parent="WIyWlLk6GJQsqaUBKTNV-1" vertex="1">
          <mxGeometry x="842" y="503" width="167" height="150" as="geometry" />
        </mxCell>
        <mxCell id="3MLsI5O5fIbENEvjLkuj-31" value="# ID отхода: NOT NULL" style="text;strokeColor=none;fillColor=none;align=left;verticalAlign=top;spacingLeft=4;spacingRight=4;overflow=hidden;rotatable=0;points=[[0,0.5],[1,0.5]];portConstraint=eastwest;whiteSpace=wrap;html=1;" parent="3MLsI5O5fIbENEvjLkuj-30" vertex="1">
          <mxGeometry y="26" width="167" height="26" as="geometry" />
        </mxCell>
        <mxCell id="3MLsI5O5fIbENEvjLkuj-32" value="Название" style="text;strokeColor=none;fillColor=none;align=left;verticalAlign=top;spacingLeft=4;spacingRight=4;overflow=hidden;rotatable=0;points=[[0,0.5],[1,0.5]];portConstraint=eastwest;whiteSpace=wrap;html=1;" parent="3MLsI5O5fIbENEvjLkuj-30" vertex="1">
          <mxGeometry y="52" width="167" height="26" as="geometry" />
        </mxCell>
        <mxCell id="3MLsI5O5fIbENEvjLkuj-46" value="# ID участка: NOT NULL" style="text;strokeColor=none;fillColor=none;align=left;verticalAlign=top;spacingLeft=4;spacingRight=4;overflow=hidden;rotatable=0;points=[[0,0.5],[1,0.5]];portConstraint=eastwest;whiteSpace=wrap;html=1;" parent="3MLsI5O5fIbENEvjLkuj-30" vertex="1">
          <mxGeometry y="78" width="167" height="26" as="geometry" />
        </mxCell>
        <mxCell id="3MLsI5O5fIbENEvjLkuj-33" value="# ID класса опасности: NOT NULL" style="text;strokeColor=none;fillColor=none;align=left;verticalAlign=top;spacingLeft=4;spacingRight=4;overflow=hidden;rotatable=0;points=[[0,0.5],[1,0.5]];portConstraint=eastwest;whiteSpace=wrap;html=1;" parent="3MLsI5O5fIbENEvjLkuj-30" vertex="1">
          <mxGeometry y="104" width="167" height="46" as="geometry" />
        </mxCell>
        <mxCell id="3MLsI5O5fIbENEvjLkuj-37" value="" style="endArrow=open;endFill=1;endSize=12;html=1;rounded=0;exitX=0.5;exitY=0;exitDx=0;exitDy=0;entryX=0.5;entryY=1;entryDx=0;entryDy=0;" parent="WIyWlLk6GJQsqaUBKTNV-1" source="3MLsI5O5fIbENEvjLkuj-8" target="3MLsI5O5fIbENEvjLkuj-5" edge="1">
          <mxGeometry width="160" relative="1" as="geometry">
            <mxPoint x="430" y="470" as="sourcePoint" />
            <mxPoint x="590" y="470" as="targetPoint" />
          </mxGeometry>
        </mxCell>
        <mxCell id="3MLsI5O5fIbENEvjLkuj-38" value="Относится к" style="text;html=1;align=center;verticalAlign=middle;resizable=0;points=[];autosize=1;strokeColor=none;fillColor=none;" parent="WIyWlLk6GJQsqaUBKTNV-1" vertex="1">
          <mxGeometry x="373" y="458" width="90" height="30" as="geometry" />
        </mxCell>
        <mxCell id="3MLsI5O5fIbENEvjLkuj-39" value="" style="endArrow=open;endFill=1;endSize=12;html=1;rounded=0;entryX=0.5;entryY=1;entryDx=0;entryDy=0;" parent="WIyWlLk6GJQsqaUBKTNV-1" edge="1" source="3MLsI5O5fIbENEvjLkuj-30">
          <mxGeometry width="160" relative="1" as="geometry">
            <mxPoint x="912" y="479" as="sourcePoint" />
            <mxPoint x="912" y="389" as="targetPoint" />
          </mxGeometry>
        </mxCell>
        <mxCell id="3MLsI5O5fIbENEvjLkuj-40" value="Относится" style="text;html=1;align=center;verticalAlign=middle;resizable=0;points=[];autosize=1;strokeColor=none;fillColor=none;" parent="WIyWlLk6GJQsqaUBKTNV-1" vertex="1">
          <mxGeometry x="870" y="419" width="80" height="30" as="geometry" />
        </mxCell>
        <mxCell id="3MLsI5O5fIbENEvjLkuj-41" value="" style="endArrow=open;endFill=1;endSize=12;html=1;rounded=0;exitX=0.744;exitY=0.149;exitDx=0;exitDy=0;entryX=1;entryY=0.5;entryDx=0;entryDy=0;exitPerimeter=0;" parent="WIyWlLk6GJQsqaUBKTNV-1" source="3MLsI5O5fIbENEvjLkuj-64" target="3MLsI5O5fIbENEvjLkuj-18" edge="1">
          <mxGeometry width="160" relative="1" as="geometry">
            <mxPoint x="609.58" y="472" as="sourcePoint" />
            <mxPoint x="609.58" y="380" as="targetPoint" />
          </mxGeometry>
        </mxCell>
        <mxCell id="3MLsI5O5fIbENEvjLkuj-42" value="Содержит" style="text;html=1;align=center;verticalAlign=middle;resizable=0;points=[];autosize=1;strokeColor=none;fillColor=none;" parent="WIyWlLk6GJQsqaUBKTNV-1" vertex="1">
          <mxGeometry x="506" y="561" width="80" height="30" as="geometry" />
        </mxCell>
        <mxCell id="3MLsI5O5fIbENEvjLkuj-44" value="" style="endArrow=open;endFill=1;endSize=12;html=1;rounded=0;exitX=0.5;exitY=0;exitDx=0;exitDy=0;entryX=0.5;entryY=1;entryDx=0;entryDy=0;" parent="WIyWlLk6GJQsqaUBKTNV-1" source="3MLsI5O5fIbENEvjLkuj-14" target="3MLsI5O5fIbENEvjLkuj-23" edge="1">
          <mxGeometry width="160" relative="1" as="geometry">
            <mxPoint x="710" y="710" as="sourcePoint" />
            <mxPoint x="590" y="710" as="targetPoint" />
          </mxGeometry>
        </mxCell>
        <mxCell id="3MLsI5O5fIbENEvjLkuj-45" value="Относится к" style="text;html=1;align=center;verticalAlign=middle;resizable=0;points=[];autosize=1;strokeColor=none;fillColor=none;" parent="WIyWlLk6GJQsqaUBKTNV-1" vertex="1">
          <mxGeometry x="616" y="683" width="90" height="30" as="geometry" />
        </mxCell>
        <mxCell id="3MLsI5O5fIbENEvjLkuj-47" value="" style="endArrow=open;endFill=1;endSize=12;html=1;rounded=0;entryX=0;entryY=0.5;entryDx=0;entryDy=0;" parent="WIyWlLk6GJQsqaUBKTNV-1" source="3MLsI5O5fIbENEvjLkuj-32" target="3MLsI5O5fIbENEvjLkuj-12" edge="1">
          <mxGeometry width="160" relative="1" as="geometry">
            <mxPoint x="1120" y="671" as="sourcePoint" />
            <mxPoint x="1000" y="671" as="targetPoint" />
          </mxGeometry>
        </mxCell>
        <mxCell id="3MLsI5O5fIbENEvjLkuj-48" value="Хранится/&lt;div&gt;Перерабатывается&lt;/div&gt;" style="text;html=1;align=center;verticalAlign=middle;resizable=0;points=[];autosize=1;strokeColor=none;fillColor=none;" parent="WIyWlLk6GJQsqaUBKTNV-1" vertex="1">
          <mxGeometry x="1009" y="534" width="130" height="40" as="geometry" />
        </mxCell>
        <mxCell id="3MLsI5O5fIbENEvjLkuj-50" value="" style="endArrow=open;endFill=1;endSize=12;html=1;rounded=0;entryX=1;entryY=0.5;entryDx=0;entryDy=0;exitX=0.5;exitY=0;exitDx=0;exitDy=0;" parent="WIyWlLk6GJQsqaUBKTNV-1" source="3MLsI5O5fIbENEvjLkuj-11" target="3MLsI5O5fIbENEvjLkuj-1" edge="1">
          <mxGeometry width="160" relative="1" as="geometry">
            <mxPoint x="1259.58" y="519" as="sourcePoint" />
            <mxPoint x="1259.58" y="429" as="targetPoint" />
            <Array as="points">
              <mxPoint x="1280" y="353" />
            </Array>
          </mxGeometry>
        </mxCell>
        <mxCell id="3MLsI5O5fIbENEvjLkuj-52" value="Относится" style="text;html=1;align=center;verticalAlign=middle;resizable=0;points=[];autosize=1;strokeColor=none;fillColor=none;" parent="WIyWlLk6GJQsqaUBKTNV-1" vertex="1">
          <mxGeometry x="1160" y="321" width="80" height="30" as="geometry" />
        </mxCell>
        <mxCell id="3MLsI5O5fIbENEvjLkuj-53" value="" style="endArrow=open;endFill=1;endSize=12;html=1;rounded=0;exitX=1;exitY=0.5;exitDx=0;exitDy=0;entryX=0;entryY=0.154;entryDx=0;entryDy=0;entryPerimeter=0;" parent="WIyWlLk6GJQsqaUBKTNV-1" source="3MLsI5O5fIbENEvjLkuj-25" target="3MLsI5O5fIbENEvjLkuj-32" edge="1">
          <mxGeometry width="160" relative="1" as="geometry">
            <mxPoint x="950" y="674" as="sourcePoint" />
            <mxPoint x="830" y="674" as="targetPoint" />
          </mxGeometry>
        </mxCell>
        <mxCell id="3MLsI5O5fIbENEvjLkuj-54" value="Содержит" style="text;html=1;align=center;verticalAlign=middle;resizable=0;points=[];autosize=1;strokeColor=none;fillColor=none;" parent="WIyWlLk6GJQsqaUBKTNV-1" vertex="1">
          <mxGeometry x="751" y="510" width="80" height="30" as="geometry" />
        </mxCell>
        <mxCell id="3MLsI5O5fIbENEvjLkuj-55" value="Сотрудник пункта приема" style="swimlane;fontStyle=0;childLayout=stackLayout;horizontal=1;startSize=26;fillColor=none;horizontalStack=0;resizeParent=1;resizeParentMax=0;resizeLast=0;collapsible=1;marginBottom=0;whiteSpace=wrap;html=1;" parent="WIyWlLk6GJQsqaUBKTNV-1" vertex="1">
          <mxGeometry x="610" y="216" width="178" height="104" as="geometry" />
        </mxCell>
        <mxCell id="3MLsI5O5fIbENEvjLkuj-56" value="# ID сотрудника: NOT NULL" style="text;strokeColor=none;fillColor=none;align=left;verticalAlign=top;spacingLeft=4;spacingRight=4;overflow=hidden;rotatable=0;points=[[0,0.5],[1,0.5]];portConstraint=eastwest;whiteSpace=wrap;html=1;" parent="3MLsI5O5fIbENEvjLkuj-55" vertex="1">
          <mxGeometry y="26" width="178" height="26" as="geometry" />
        </mxCell>
        <mxCell id="3MLsI5O5fIbENEvjLkuj-57" value="ФИО" style="text;strokeColor=none;fillColor=none;align=left;verticalAlign=top;spacingLeft=4;spacingRight=4;overflow=hidden;rotatable=0;points=[[0,0.5],[1,0.5]];portConstraint=eastwest;whiteSpace=wrap;html=1;" parent="3MLsI5O5fIbENEvjLkuj-55" vertex="1">
          <mxGeometry y="52" width="178" height="26" as="geometry" />
        </mxCell>
        <mxCell id="3MLsI5O5fIbENEvjLkuj-58" value="Должность" style="text;strokeColor=none;fillColor=none;align=left;verticalAlign=top;spacingLeft=4;spacingRight=4;overflow=hidden;rotatable=0;points=[[0,0.5],[1,0.5]];portConstraint=eastwest;whiteSpace=wrap;html=1;" parent="3MLsI5O5fIbENEvjLkuj-55" vertex="1">
          <mxGeometry y="78" width="178" height="26" as="geometry" />
        </mxCell>
        <mxCell id="3MLsI5O5fIbENEvjLkuj-61" value="1" style="text;html=1;align=center;verticalAlign=middle;resizable=0;points=[];autosize=1;strokeColor=none;fillColor=none;" parent="WIyWlLk6GJQsqaUBKTNV-1" vertex="1">
          <mxGeometry x="664" y="708" width="25" height="26" as="geometry" />
        </mxCell>
        <mxCell id="3MLsI5O5fIbENEvjLkuj-62" value="1" style="text;html=1;align=center;verticalAlign=middle;resizable=0;points=[];autosize=1;strokeColor=none;fillColor=none;" parent="WIyWlLk6GJQsqaUBKTNV-1" vertex="1">
          <mxGeometry x="665" y="648" width="25" height="26" as="geometry" />
        </mxCell>
        <mxCell id="3MLsI5O5fIbENEvjLkuj-63" value="1" style="text;html=1;align=center;verticalAlign=middle;resizable=0;points=[];autosize=1;strokeColor=none;fillColor=none;" parent="WIyWlLk6GJQsqaUBKTNV-1" vertex="1">
          <mxGeometry x="488" y="590" width="25" height="26" as="geometry" />
        </mxCell>
        <mxCell id="3MLsI5O5fIbENEvjLkuj-64" value="1" style="text;html=1;align=center;verticalAlign=middle;resizable=0;points=[];autosize=1;strokeColor=none;fillColor=none;" parent="WIyWlLk6GJQsqaUBKTNV-1" vertex="1">
          <mxGeometry x="558" y="584" width="25" height="26" as="geometry" />
        </mxCell>
        <mxCell id="3MLsI5O5fIbENEvjLkuj-65" value="1" style="text;html=1;align=center;verticalAlign=middle;resizable=0;points=[];autosize=1;strokeColor=none;fillColor=none;" parent="WIyWlLk6GJQsqaUBKTNV-1" vertex="1">
          <mxGeometry x="750" y="534" width="25" height="26" as="geometry" />
        </mxCell>
        <mxCell id="3MLsI5O5fIbENEvjLkuj-66" value="1" style="text;html=1;align=center;verticalAlign=middle;resizable=0;points=[];autosize=1;strokeColor=none;fillColor=none;" parent="WIyWlLk6GJQsqaUBKTNV-1" vertex="1">
          <mxGeometry x="815" y="535" width="25" height="26" as="geometry" />
        </mxCell>
        <mxCell id="3MLsI5O5fIbENEvjLkuj-67" value="1" style="text;html=1;align=center;verticalAlign=middle;resizable=0;points=[];autosize=1;strokeColor=none;fillColor=none;" parent="WIyWlLk6GJQsqaUBKTNV-1" vertex="1">
          <mxGeometry x="421" y="424" width="25" height="26" as="geometry" />
        </mxCell>
        <mxCell id="3MLsI5O5fIbENEvjLkuj-68" value="1" style="text;html=1;align=center;verticalAlign=middle;resizable=0;points=[];autosize=1;strokeColor=none;fillColor=none;" parent="WIyWlLk6GJQsqaUBKTNV-1" vertex="1">
          <mxGeometry x="421" y="496" width="25" height="26" as="geometry" />
        </mxCell>
        <mxCell id="3MLsI5O5fIbENEvjLkuj-70" value="Относится к" style="text;html=1;align=center;verticalAlign=middle;resizable=0;points=[];autosize=1;strokeColor=none;fillColor=none;" parent="WIyWlLk6GJQsqaUBKTNV-1" vertex="1">
          <mxGeometry x="635" y="377" width="90" height="30" as="geometry" />
        </mxCell>
        <mxCell id="3MLsI5O5fIbENEvjLkuj-69" value="" style="endArrow=open;endFill=1;endSize=12;html=1;rounded=0;entryX=0.5;entryY=0;entryDx=0;entryDy=0;" parent="WIyWlLk6GJQsqaUBKTNV-1" target="3MLsI5O5fIbENEvjLkuj-23" edge="1">
          <mxGeometry width="160" relative="1" as="geometry">
            <mxPoint x="695.6777777777779" y="320" as="sourcePoint" />
            <mxPoint x="1270" y="541" as="targetPoint" />
            <Array as="points" />
          </mxGeometry>
        </mxCell>
        <mxCell id="3MLsI5O5fIbENEvjLkuj-72" value="1" style="text;html=1;align=center;verticalAlign=middle;resizable=0;points=[];autosize=1;strokeColor=none;fillColor=none;" parent="WIyWlLk6GJQsqaUBKTNV-1" vertex="1">
          <mxGeometry x="681" y="421" width="25" height="26" as="geometry" />
        </mxCell>
        <mxCell id="3MLsI5O5fIbENEvjLkuj-73" value="&lt;font style=&quot;font-size: 20px;&quot;&gt;*&lt;/font&gt;" style="text;html=1;align=center;verticalAlign=middle;resizable=0;points=[];autosize=1;strokeColor=none;fillColor=none;" parent="WIyWlLk6GJQsqaUBKTNV-1" vertex="1">
          <mxGeometry x="686.5" y="314" width="26" height="36" as="geometry" />
        </mxCell>
        <mxCell id="3MLsI5O5fIbENEvjLkuj-74" value="1" style="text;html=1;align=center;verticalAlign=middle;resizable=0;points=[];autosize=1;strokeColor=none;fillColor=none;" parent="WIyWlLk6GJQsqaUBKTNV-1" vertex="1">
          <mxGeometry x="911" y="386" width="25" height="26" as="geometry" />
        </mxCell>
        <mxCell id="3MLsI5O5fIbENEvjLkuj-75" value="&lt;font style=&quot;font-size: 18px;&quot;&gt;*&lt;/font&gt;" style="text;html=1;align=center;verticalAlign=middle;resizable=0;points=[];autosize=1;strokeColor=none;fillColor=none;" parent="WIyWlLk6GJQsqaUBKTNV-1" vertex="1">
          <mxGeometry x="908" y="480" width="25" height="34" as="geometry" />
        </mxCell>
        <mxCell id="3MLsI5O5fIbENEvjLkuj-76" value="&lt;font style=&quot;font-size: 18px;&quot;&gt;*&lt;/font&gt;" style="text;html=1;align=center;verticalAlign=middle;resizable=0;points=[];autosize=1;strokeColor=none;fillColor=none;" parent="WIyWlLk6GJQsqaUBKTNV-1" vertex="1">
          <mxGeometry x="1002" y="550" width="25" height="34" as="geometry" />
        </mxCell>
        <mxCell id="3MLsI5O5fIbENEvjLkuj-77" value="1" style="text;html=1;align=center;verticalAlign=middle;resizable=0;points=[];autosize=1;strokeColor=none;fillColor=none;" parent="WIyWlLk6GJQsqaUBKTNV-1" vertex="1">
          <mxGeometry x="1142" y="543" width="25" height="26" as="geometry" />
        </mxCell>
        <mxCell id="3MLsI5O5fIbENEvjLkuj-80" value="1" style="text;html=1;align=center;verticalAlign=middle;resizable=0;points=[];autosize=1;strokeColor=none;fillColor=none;" parent="WIyWlLk6GJQsqaUBKTNV-1" vertex="1">
          <mxGeometry x="980" y="325" width="25" height="26" as="geometry" />
        </mxCell>
        <mxCell id="3MLsI5O5fIbENEvjLkuj-81" value="1" style="text;html=1;align=center;verticalAlign=middle;resizable=0;points=[];autosize=1;strokeColor=none;fillColor=none;" parent="WIyWlLk6GJQsqaUBKTNV-1" vertex="1">
          <mxGeometry x="1258" y="503" width="25" height="26" as="geometry" />
        </mxCell>
      </root>
    </mxGraphModel>
  </diagram>
</mxfile>
